<svg width="164" height="61" viewBox="0 0 164 61" fill="none" xmlns="http://www.w3.org/2000/svg">
<path fill-rule="evenodd" clip-rule="evenodd" d="M0.0120987 8.61261V17.2252L0.498488 17.8907C0.766137 18.2567 1.16728 18.7214 1.39009 18.9235C1.80906 19.3033 5.02272 21.3714 5.19391 21.3714C5.24706 21.3714 5.49756 21.5176 5.7506 21.6965C6.20014 22.014 8.03378 23.1526 15.8062 27.9399C17.9078 29.2345 20.0334 30.5587 20.5298 30.8824C21.0262 31.206 21.8481 31.7131 22.3566 32.0092C23.5734 32.7176 27.1483 34.9224 31.3022 37.5261C33.1465 38.6823 34.7323 39.6282 34.8261 39.6282C35.2403 39.6282 34.8021 35.306 34.2122 33.5711C33.8859 32.612 33.3306 31.6611 32.8535 31.2455C32.6779 31.0924 30.4326 29.6431 27.864 28.0248C25.2953 26.4064 22.6969 24.7616 22.0898 24.3693C20.9605 23.6399 11.6109 17.7049 10.3784 16.9352C7.31745 15.0235 6.31715 14.3367 6.21916 14.0801C6.15666 13.9165 6.11047 12.0541 6.11659 9.94161C6.12864 5.79014 6.00858 4.60993 5.45426 3.42495C4.65827 1.72382 2.62304 0.252011 0.826765 0.0784859L0.0120987 0V8.61261ZM32.9075 0.379469C31.3039 1.00907 30.104 2.1874 29.4566 3.76875C29.0796 4.68961 29.0606 4.93429 29.0558 8.91582C29.0531 11.215 28.973 13.3778 28.8779 13.7221C28.7454 14.2013 28.4964 14.486 27.8173 14.9351C26.0035 16.1344 21.9702 18.7663 20.9472 19.4179C20.3655 19.7885 19.907 20.1472 19.9282 20.2149C19.978 20.3731 25.6336 23.9308 25.8355 23.9308C25.9193 23.9308 27.2127 23.1437 28.7099 22.1819C30.2071 21.2201 31.7947 20.2149 32.2379 19.9482C33.2139 19.3611 33.8615 18.7747 34.5092 17.8907L34.9968 17.2252V8.63429V0.0433384L34.3599 0.0513572C34.0097 0.0557935 33.3561 0.203384 32.9075 0.379469ZM0.0131164 22.1774C0.014475 23.5605 0.441595 26.2108 0.862939 27.4508C1.05841 28.0259 1.48315 28.8076 1.80684 29.1874C2.30835 29.7762 5.68132 32.0402 10.4374 34.9806L11.2673 35.4938L9.5033 36.6473C8.53307 37.2815 7.39539 38.0314 6.97507 38.3134C6.55474 38.5955 5.14975 39.512 3.85294 40.3503C1.63056 41.7868 1.01749 42.3088 0.310489 43.3659C0.038594 43.7722 0.0143049 44.5144 0.013286 52.4043L0.0120987 61L0.733871 60.8881C2.31854 60.6422 3.10909 60.2516 4.18631 59.1823C5.89648 57.4846 6.01214 57.0302 6.07922 51.7426C6.10945 49.3496 6.17279 47.2161 6.21984 47.0014C6.28165 46.7196 7.28246 45.9657 9.82445 44.2863C15.8384 40.313 17.1731 39.4576 17.3589 39.4576C17.5393 39.4576 18.5586 40.0869 23.4484 43.2172C24.8962 44.144 26.6273 45.2304 27.2954 45.6313C27.9635 46.0323 28.6131 46.5157 28.7389 46.7054C28.9118 46.9659 28.9887 48.2211 29.0528 51.8279L29.1377 56.6054L29.7149 57.6749C30.6814 59.4654 32.4325 60.7082 34.1476 60.8208L34.9119 60.871L34.9558 52.2876L35 43.704L34.5009 42.9752C33.8747 42.061 33.5335 41.8088 29.9868 39.6393C26.9595 37.7875 25.8875 37.1238 23.7881 35.8008C23.0875 35.3594 19.1136 32.8993 14.957 30.334C10.8005 27.7686 7.09395 25.4792 6.72033 25.2463C3.2261 23.0681 0.988782 21.6994 0.544681 21.4687L0.0120987 21.1921L0.0131164 22.1774ZM31.2521 23.3215C28.9573 24.6431 28.4492 25.0049 28.4068 25.3468C28.3495 25.8087 28.1632 25.6746 31.8247 27.8036C33.3513 28.6914 34.1381 29.0541 34.4571 29.0171L34.9119 28.9642L34.9601 25.7223C35.0154 22.0026 34.9774 21.7127 34.4331 21.7127C34.22 21.7127 32.7885 22.4366 31.2521 23.3215ZM0.215894 31.9843C-0.0719647 32.2735 -0.0719647 38.793 0.215894 39.0822C0.554872 39.4228 0.848842 39.3271 2.54475 38.3236C3.44025 37.7937 4.70786 37.0448 5.3617 36.6592C6.27283 36.1221 6.56222 35.8583 6.60043 35.5303C6.6456 35.1413 6.38746 34.9504 3.77516 33.4409C2.19388 32.5272 0.792122 31.7795 0.659996 31.7795C0.527869 31.7795 0.327981 31.8717 0.215894 31.9843Z" fill="white"/>
<path d="M51.328 27.9999V16.7999H53.92V25.8879H59.536V27.9999H51.328ZM64.1842 27.9999V16.7999H66.7762V27.9999H64.1842ZM72.6342 27.9999V16.7999H74.7782L79.5463 24.7039H78.4103L83.0983 16.7999H85.2263L85.2583 27.9999H82.8263L82.8103 20.5279H83.2583L79.5142 26.8159H78.3463L74.5222 20.5279H75.0662V27.9999H72.6342ZM91.1155 27.9999V16.7999H93.7075V27.9999H91.1155ZM101.885 27.9999V18.9119H98.3015V16.7999H108.061V18.9119H104.477V27.9999H101.885ZM112.656 27.9999V16.7999H115.248V25.8879H120.864V27.9999H112.656ZM127.896 21.3119H133.288V23.3279H127.896V21.3119ZM128.088 25.9199H134.184V27.9999H125.512V16.7999H133.976V18.8799H128.088V25.9199ZM143.127 28.1919C142.231 28.1919 141.372 28.0746 140.551 27.8399C139.729 27.5946 139.068 27.2799 138.567 26.8959L139.447 24.9439C139.927 25.2852 140.492 25.5679 141.143 25.7919C141.804 26.0052 142.471 26.1119 143.143 26.1119C143.655 26.1119 144.065 26.0639 144.375 25.9679C144.695 25.8612 144.929 25.7172 145.079 25.5359C145.228 25.3546 145.303 25.1466 145.303 24.9119C145.303 24.6132 145.185 24.3786 144.951 24.2079C144.716 24.0266 144.407 23.8826 144.023 23.7759C143.639 23.6586 143.212 23.5519 142.743 23.4559C142.284 23.3492 141.82 23.2212 141.351 23.0719C140.892 22.9226 140.471 22.7306 140.087 22.4959C139.703 22.2612 139.388 21.9519 139.143 21.5679C138.908 21.1839 138.791 20.6932 138.791 20.0959C138.791 19.4559 138.961 18.8746 139.303 18.3519C139.655 17.8186 140.177 17.3972 140.871 17.0879C141.575 16.7679 142.455 16.6079 143.511 16.6079C144.215 16.6079 144.908 16.6932 145.591 16.8639C146.273 17.0239 146.876 17.2692 147.399 17.5999L146.599 19.5679C146.076 19.2692 145.553 19.0506 145.031 18.9119C144.508 18.7626 143.996 18.6879 143.495 18.6879C142.993 18.6879 142.583 18.7466 142.263 18.8639C141.943 18.9812 141.713 19.1359 141.575 19.3279C141.436 19.5092 141.367 19.7226 141.367 19.9679C141.367 20.2559 141.484 20.4906 141.719 20.6719C141.953 20.8426 142.263 20.9812 142.647 21.0879C143.031 21.1946 143.452 21.3012 143.911 21.4079C144.38 21.5146 144.844 21.6372 145.303 21.7759C145.772 21.9146 146.199 22.1012 146.583 22.3359C146.967 22.5706 147.276 22.8799 147.511 23.2639C147.756 23.6479 147.879 24.1332 147.879 24.7199C147.879 25.3492 147.703 25.9252 147.351 26.4479C146.999 26.9706 146.471 27.3919 145.767 27.7119C145.073 28.0319 144.193 28.1919 143.127 28.1919ZM156.53 28.1919C155.634 28.1919 154.775 28.0746 153.954 27.8399C153.133 27.5946 152.471 27.2799 151.97 26.8959L152.85 24.9439C153.33 25.2852 153.895 25.5679 154.546 25.7919C155.207 26.0052 155.874 26.1119 156.546 26.1119C157.058 26.1119 157.469 26.0639 157.778 25.9679C158.098 25.8612 158.333 25.7172 158.482 25.5359C158.631 25.3546 158.706 25.1466 158.706 24.9119C158.706 24.6132 158.589 24.3786 158.354 24.2079C158.119 24.0266 157.81 23.8826 157.426 23.7759C157.042 23.6586 156.615 23.5519 156.146 23.4559C155.687 23.3492 155.223 23.2212 154.754 23.0719C154.295 22.9226 153.874 22.7306 153.49 22.4959C153.106 22.2612 152.791 21.9519 152.546 21.5679C152.311 21.1839 152.194 20.6932 152.194 20.0959C152.194 19.4559 152.365 18.8746 152.706 18.3519C153.058 17.8186 153.581 17.3972 154.274 17.0879C154.978 16.7679 155.858 16.6079 156.914 16.6079C157.618 16.6079 158.311 16.6932 158.994 16.8639C159.677 17.0239 160.279 17.2692 160.802 17.5999L160.002 19.5679C159.479 19.2692 158.957 19.0506 158.434 18.9119C157.911 18.7626 157.399 18.6879 156.898 18.6879C156.397 18.6879 155.986 18.7466 155.666 18.8639C155.346 18.9812 155.117 19.1359 154.978 19.3279C154.839 19.5092 154.77 19.7226 154.77 19.9679C154.77 20.2559 154.887 20.4906 155.122 20.6719C155.357 20.8426 155.666 20.9812 156.05 21.0879C156.434 21.1946 156.855 21.3012 157.314 21.4079C157.783 21.5146 158.247 21.6372 158.706 21.7759C159.175 21.9146 159.602 22.1012 159.986 22.3359C160.37 22.5706 160.679 22.8799 160.914 23.2639C161.159 23.6479 161.282 24.1332 161.282 24.7199C161.282 25.3492 161.106 25.9252 160.754 26.4479C160.402 26.9706 159.874 27.3919 159.17 27.7119C158.477 28.0319 157.597 28.1919 156.53 28.1919ZM56.688 43.0959C55.8453 43.0959 55.0667 42.9572 54.352 42.6799C53.6373 42.3919 53.0187 41.9919 52.496 41.4799C51.9733 40.9679 51.5627 40.3652 51.264 39.6719C50.976 38.9786 50.832 38.2212 50.832 37.3999C50.832 36.5786 50.976 35.8212 51.264 35.1279C51.5627 34.4346 51.9733 33.8319 52.496 33.3199C53.0293 32.8079 53.6533 32.4132 54.368 32.1359C55.0827 31.8479 55.8613 31.7039 56.704 31.7039C57.5147 31.7039 58.2773 31.8426 58.992 32.1199C59.7067 32.3866 60.3093 32.7919 60.8 33.3359L60.048 34.0879C59.5893 33.6186 59.0827 33.2826 58.528 33.0799C57.9733 32.8666 57.376 32.7599 56.736 32.7599C56.064 32.7599 55.44 32.8772 54.864 33.1119C54.288 33.3359 53.7867 33.6612 53.36 34.0879C52.9333 34.5039 52.5973 34.9946 52.352 35.5599C52.1173 36.1146 52 36.7279 52 37.3999C52 38.0719 52.1173 38.6906 52.352 39.2559C52.5973 39.8106 52.9333 40.3012 53.36 40.7279C53.7867 41.1439 54.288 41.4692 54.864 41.7039C55.44 41.9279 56.064 42.0399 56.736 42.0399C57.376 42.0399 57.9733 41.9332 58.528 41.7199C59.0827 41.5066 59.5893 41.1652 60.048 40.6959L60.8 41.4479C60.3093 41.9919 59.7067 42.4026 58.992 42.6799C58.2773 42.9572 57.5093 43.0959 56.688 43.0959ZM67.9856 43.0959C67.143 43.0959 66.359 42.9572 65.6336 42.6799C64.919 42.3919 64.295 41.9919 63.7616 41.4799C63.239 40.9572 62.8283 40.3546 62.5296 39.6719C62.2416 38.9786 62.0976 38.2212 62.0976 37.3999C62.0976 36.5786 62.2416 35.8266 62.5296 35.1439C62.8283 34.4506 63.239 33.8479 63.7616 33.3359C64.295 32.8132 64.919 32.4132 65.6336 32.1359C66.3483 31.8479 67.1323 31.7039 67.9856 31.7039C68.8283 31.7039 69.607 31.8479 70.3216 32.1359C71.0363 32.4132 71.655 32.8079 72.1776 33.3199C72.711 33.8319 73.1216 34.4346 73.4096 35.1279C73.7083 35.8212 73.8576 36.5786 73.8576 37.3999C73.8576 38.2212 73.7083 38.9786 73.4096 39.6719C73.1216 40.3652 72.711 40.9679 72.1776 41.4799C71.655 41.9919 71.0363 42.3919 70.3216 42.6799C69.607 42.9572 68.8283 43.0959 67.9856 43.0959ZM67.9856 42.0399C68.6576 42.0399 69.2763 41.9279 69.8416 41.7039C70.4176 41.4692 70.9136 41.1439 71.3296 40.7279C71.7563 40.3012 72.087 39.8106 72.3216 39.2559C72.5563 38.6906 72.6736 38.0719 72.6736 37.3999C72.6736 36.7279 72.5563 36.1146 72.3216 35.5599C72.087 34.9946 71.7563 34.5039 71.3296 34.0879C70.9136 33.6612 70.4176 33.3359 69.8416 33.1119C69.2763 32.8772 68.6576 32.7599 67.9856 32.7599C67.3136 32.7599 66.6896 32.8772 66.1136 33.1119C65.5376 33.3359 65.0363 33.6612 64.6096 34.0879C64.1936 34.5039 63.863 34.9946 63.6176 35.5599C63.383 36.1146 63.2656 36.7279 63.2656 37.3999C63.2656 38.0612 63.383 38.6746 63.6176 39.2399C63.863 39.8052 64.1936 40.3012 64.6096 40.7279C65.0363 41.1439 65.5376 41.4692 66.1136 41.7039C66.6896 41.9279 67.3136 42.0399 67.9856 42.0399ZM76.5115 42.9999V31.7999H77.4875L85.2155 41.5279H84.7035V31.7999H85.8715V42.9999H84.8955L77.1835 33.2719H77.6955V42.9999H76.5115ZM89.5271 42.9999V31.7999H90.5031L98.2311 41.5279H97.7191V31.7999H98.8871V42.9999H97.9111L90.1991 33.2719H90.7111V42.9999H89.5271ZM103.599 36.8079H109.519V37.8159H103.599V36.8079ZM103.727 41.9759H110.463V42.9999H102.543V31.7999H110.223V32.8239H103.727V41.9759ZM118.079 43.0959C117.236 43.0959 116.457 42.9572 115.743 42.6799C115.028 42.3919 114.409 41.9919 113.887 41.4799C113.364 40.9679 112.953 40.3652 112.655 39.6719C112.367 38.9786 112.223 38.2212 112.223 37.3999C112.223 36.5786 112.367 35.8212 112.655 35.1279C112.953 34.4346 113.364 33.8319 113.887 33.3199C114.42 32.8079 115.044 32.4132 115.759 32.1359C116.473 31.8479 117.252 31.7039 118.095 31.7039C118.905 31.7039 119.668 31.8426 120.383 32.1199C121.097 32.3866 121.7 32.7919 122.191 33.3359L121.439 34.0879C120.98 33.6186 120.473 33.2826 119.919 33.0799C119.364 32.8666 118.767 32.7599 118.127 32.7599C117.455 32.7599 116.831 32.8772 116.255 33.1119C115.679 33.3359 115.177 33.6612 114.751 34.0879C114.324 34.5039 113.988 34.9946 113.743 35.5599C113.508 36.1146 113.391 36.7279 113.391 37.3999C113.391 38.0719 113.508 38.6906 113.743 39.2559C113.988 39.8106 114.324 40.3012 114.751 40.7279C115.177 41.1439 115.679 41.4692 116.255 41.7039C116.831 41.9279 117.455 42.0399 118.127 42.0399C118.767 42.0399 119.364 41.9332 119.919 41.7199C120.473 41.5066 120.98 41.1652 121.439 40.6959L122.191 41.4479C121.7 41.9919 121.097 42.4026 120.383 42.6799C119.668 42.9572 118.9 43.0959 118.079 43.0959ZM126.75 42.9999V32.8239H122.814V31.7999H131.87V32.8239H127.934V42.9999H126.75ZM133.762 42.9999V31.7999H134.946V42.9999H133.762ZM143.486 43.0959C142.643 43.0959 141.859 42.9572 141.134 42.6799C140.419 42.3919 139.795 41.9919 139.262 41.4799C138.739 40.9572 138.328 40.3546 138.03 39.6719C137.742 38.9786 137.598 38.2212 137.598 37.3999C137.598 36.5786 137.742 35.8266 138.03 35.1439C138.328 34.4506 138.739 33.8479 139.262 33.3359C139.795 32.8132 140.419 32.4132 141.134 32.1359C141.848 31.8479 142.632 31.7039 143.486 31.7039C144.328 31.7039 145.107 31.8479 145.822 32.1359C146.536 32.4132 147.155 32.8079 147.678 33.3199C148.211 33.8319 148.622 34.4346 148.91 35.1279C149.208 35.8212 149.358 36.5786 149.358 37.3999C149.358 38.2212 149.208 38.9786 148.91 39.6719C148.622 40.3652 148.211 40.9679 147.678 41.4799C147.155 41.9919 146.536 42.3919 145.822 42.6799C145.107 42.9572 144.328 43.0959 143.486 43.0959ZM143.486 42.0399C144.158 42.0399 144.776 41.9279 145.342 41.7039C145.918 41.4692 146.414 41.1439 146.83 40.7279C147.256 40.3012 147.587 39.8106 147.822 39.2559C148.056 38.6906 148.174 38.0719 148.174 37.3999C148.174 36.7279 148.056 36.1146 147.822 35.5599C147.587 34.9946 147.256 34.5039 146.83 34.0879C146.414 33.6612 145.918 33.3359 145.342 33.1119C144.776 32.8772 144.158 32.7599 143.486 32.7599C142.814 32.7599 142.19 32.8772 141.614 33.1119C141.038 33.3359 140.536 33.6612 140.11 34.0879C139.694 34.5039 139.363 34.9946 139.118 35.5599C138.883 36.1146 138.766 36.7279 138.766 37.3999C138.766 38.0612 138.883 38.6746 139.118 39.2399C139.363 39.8052 139.694 40.3012 140.11 40.7279C140.536 41.1439 141.038 41.4692 141.614 41.7039C142.19 41.9279 142.814 42.0399 143.486 42.0399ZM152.012 42.9999V31.7999H152.988L160.716 41.5279H160.204V31.7999H161.372V42.9999H160.396L152.684 33.2719H153.196V42.9999H152.012Z" fill="white"/>
</svg>
