<svg width="125" height="25" viewBox="0 0 125 25" fill="none" xmlns="http://www.w3.org/2000/svg">
<path d="M8.088 23.5V24.5H9.088V23.5H8.088ZM0.696 23.5H-0.304V24.5H0.696V23.5ZM0.696 1.1V0.0999985H-0.304V1.1H0.696ZM8.088 1.1H9.088V0.0999985H8.088V1.1ZM8.088 9.036H7.088V10.036H8.088V9.036ZM9.944 9.036V10.036H10.5278L10.8148 9.52759L9.944 9.036ZM14.424 1.1V0.0999985H13.8402L13.5532 0.608404L14.424 1.1ZM22.552 1.1L23.4042 1.62314L24.3392 0.0999985H22.552V1.1ZM15.736 12.204L14.8838 11.6809L14.5624 12.2044L14.8841 12.7277L15.736 12.204ZM22.68 23.5V24.5H24.4686L23.5319 22.9763L22.68 23.5ZM14.552 23.5L13.693 24.012L13.9839 24.5H14.552V23.5ZM9.784 15.5L10.643 14.988L10.3521 14.5H9.784V15.5ZM8.088 15.5V14.5H7.088V15.5H8.088ZM8.088 22.5H0.696V24.5H8.088V22.5ZM1.696 23.5V1.1H-0.304V23.5H1.696ZM0.696 2.1H8.088V0.0999985H0.696V2.1ZM7.088 1.1V9.036H9.088V1.1H7.088ZM8.088 10.036H9.944V8.036H8.088V10.036ZM10.8148 9.52759L15.2948 1.59159L13.5532 0.608404L9.07318 8.5444L10.8148 9.52759ZM14.424 2.1H22.552V0.0999985H14.424V2.1ZM21.6998 0.57686L14.8838 11.6809L16.5882 12.7271L23.4042 1.62314L21.6998 0.57686ZM14.8841 12.7277L21.8281 24.0237L23.5319 22.9763L16.5879 11.6803L14.8841 12.7277ZM22.68 22.5H14.552V24.5H22.68V22.5ZM15.411 22.988L10.643 14.988L8.925 16.012L13.693 24.012L15.411 22.988ZM9.784 14.5H8.088V16.5H9.784V14.5ZM7.088 15.5V23.5H9.088V15.5H7.088ZM38.7933 18.348L37.8873 17.9245L37.8842 17.9313L38.7933 18.348ZM35.4653 22.732L36.02 23.5641L36.0294 23.5576L35.4653 22.732ZM26.6333 23.34H25.6333V24.0957L26.3602 24.302L26.6333 23.34ZM26.6333 17.388L26.9711 16.4468L25.6333 15.9665V17.388H26.6333ZM31.8493 16.556L30.9548 16.1088L30.941 16.1364L30.9289 16.1649L31.8493 16.556ZM32.2013 15.852L33.0957 16.2992L33.3362 15.8181L33.0674 15.3522L32.2013 15.852ZM23.6893 1.1V0.0999985H21.9577L22.8231 1.59978L23.6893 1.1ZM31.5933 1.1L32.4999 0.678016L32.2308 0.0999985H31.5933V1.1ZM35.6893 9.9L34.7826 10.322L35.7891 12.4844L36.6257 10.2507L35.6893 9.9ZM38.9853 1.1V0.0999985H38.292L38.0488 0.749248L38.9853 1.1ZM46.8573 1.1L47.7631 1.52353L48.4287 0.0999985H46.8573V1.1ZM37.8842 17.9313C36.9889 19.8846 35.978 21.1705 34.9011 21.9064L36.0294 23.5576C37.5125 22.5442 38.7202 20.9074 39.7023 18.7647L37.8842 17.9313ZM34.9105 21.9C33.8297 22.6205 32.445 23.012 30.6973 23.012V25.012C32.7468 25.012 34.5408 24.5501 36.02 23.5641L34.9105 21.9ZM30.6973 23.012C29.6902 23.012 28.4323 22.8111 26.9063 22.378L26.3602 24.302C27.9915 24.7649 29.443 25.012 30.6973 25.012V23.012ZM27.6333 23.34V17.388H25.6333V23.34H27.6333ZM26.2954 18.3292C27.2398 18.6682 28.2292 18.836 29.2573 18.836V16.836C28.4507 16.836 27.6907 16.7051 26.9711 16.4468L26.2954 18.3292ZM29.2573 18.836C30.8041 18.836 32.179 18.3366 32.7696 16.9471L30.9289 16.1649C30.7941 16.482 30.4411 16.836 29.2573 16.836V18.836ZM32.7437 17.0032L33.0957 16.2992L31.3068 15.4048L30.9548 16.1088L32.7437 17.0032ZM33.0674 15.3522L24.5554 0.600222L22.8231 1.59978L31.3351 16.3518L33.0674 15.3522ZM23.6893 2.1H31.5933V0.0999985H23.6893V2.1ZM30.6866 1.52198L34.7826 10.322L36.5959 9.47802L32.4999 0.678016L30.6866 1.52198ZM36.6257 10.2507L39.9217 1.45075L38.0488 0.749248L34.7528 9.54925L36.6257 10.2507ZM38.9853 2.1H46.8573V0.0999985H38.9853V2.1ZM45.9514 0.676469L37.8874 17.9245L39.6991 18.7715L47.7631 1.52353L45.9514 0.676469ZM49.9897 1.1V0.0999985H48.9897V1.1H49.9897ZM57.3818 17.644V16.644H56.3818V17.644H57.3818ZM57.3818 23.5V24.5H58.3818V23.5H57.3818ZM49.9897 23.5H48.9897V24.5H49.9897V23.5ZM57.3818 7.18V6.18H56.3818V7.18H57.3818ZM57.3818 11.564H56.3818V12.564H57.3818V11.564ZM49.9897 2.1H59.7818V0.0999985H49.9897V2.1ZM59.7818 2.1C63.0188 2.1 65.2606 2.77144 66.6814 3.94343C68.0654 5.08501 68.8298 6.83565 68.8298 9.388H70.8298C70.8298 6.41501 69.9194 4.02165 67.9541 2.40057C66.0256 0.809894 63.2434 0.0999985 59.7818 0.0999985V2.1ZM68.8298 9.388C68.8298 11.9284 68.0663 13.6707 66.6829 14.8074C65.2619 15.9749 63.0195 16.644 59.7818 16.644V18.644C63.2427 18.644 66.0243 17.9371 67.9526 16.3526C69.9185 14.7373 70.8298 12.3516 70.8298 9.388H68.8298ZM59.7818 16.644H57.3818V18.644H59.7818V16.644ZM56.3818 17.644V23.5H58.3818V17.644H56.3818ZM57.3818 22.5H49.9897V24.5H57.3818V22.5ZM50.9897 23.5V1.1H48.9897V23.5H50.9897ZM63.5018 9.388C63.5018 8.42828 63.1877 7.55166 62.4271 6.9485C61.7108 6.3804 60.7511 6.18 59.7178 6.18V8.18C60.5404 8.18 60.9727 8.3476 61.1844 8.5155C61.3519 8.64834 61.5018 8.87572 61.5018 9.388H63.5018ZM59.7178 6.18H57.3818V8.18H59.7178V6.18ZM56.3818 7.18V11.564H58.3818V7.18H56.3818ZM57.3818 12.564H59.7178V10.564H57.3818V12.564ZM59.7178 12.564C60.7486 12.564 61.7059 12.3672 62.4216 11.8079C63.1841 11.2119 63.5018 10.3422 63.5018 9.388H61.5018C61.5018 9.88445 61.3554 10.1027 61.1899 10.2321C60.9776 10.3981 60.5429 10.564 59.7178 10.564V12.564ZM73.8428 7.084L74.7606 7.48091V7.48091L73.8428 7.084ZM76.6268 3.34L76.0177 2.54682L76.0108 2.55219L76.6268 3.34ZM80.5308 1.292L80.834 2.24497L80.8427 2.24209L80.5308 1.292ZM91.6668 1.932H92.6668V1.28636L92.0783 1.02063L91.6668 1.932ZM91.6668 8.524L91.0957 9.3449L92.6668 10.4378V8.524H91.6668ZM82.0988 8.364L82.7198 9.14775L82.7217 9.14628L82.0988 8.364ZM82.0988 16.268L81.4963 17.0662L81.5061 17.0734L82.0988 16.268ZM91.8268 15.916H92.8268V13.6825L91.1607 15.1701L91.8268 15.916ZM91.8268 22.668L92.2383 23.5794L92.8268 23.3136V22.668H91.8268ZM80.6268 23.34L80.9218 22.3845L80.6268 23.34ZM76.6588 21.356L76.0518 22.1508L76.0599 22.1569L76.068 22.1629L76.6588 21.356ZM73.8428 17.74L72.931 18.1509L72.9359 18.1615L73.8428 17.74ZM73.8188 12.524C73.8188 10.5869 74.1414 8.91273 74.7606 7.48091L72.9249 6.68709C72.1787 8.4126 71.8188 10.3651 71.8188 12.524H73.8188ZM74.7606 7.48091C75.3873 6.03179 76.2202 4.92718 77.2427 4.12781L76.0108 2.55219C74.6866 3.58749 73.6636 4.97888 72.9249 6.68709L74.7606 7.48091ZM77.2358 4.13315C78.3403 3.285 79.5385 2.6571 80.834 2.24493L80.2275 0.339074C78.707 0.822897 77.3025 1.56033 76.0177 2.54685L77.2358 4.13315ZM80.8427 2.24209C82.1651 1.80786 83.574 1.588 85.0748 1.588V-0.412001C83.3755 -0.412001 81.755 -0.162531 80.2188 0.341908L80.8427 2.24209ZM85.0748 1.588C87.3588 1.588 89.4138 2.01179 91.2552 2.84337L92.0783 1.02063C89.9517 0.0602106 87.612 -0.412001 85.0748 -0.412001V1.588ZM90.6668 1.932V8.524H92.6668V1.932H90.6668ZM92.2378 7.70309C90.5751 6.54645 88.6089 5.988 86.3868 5.988V7.988C88.2606 7.988 89.8144 8.45355 91.0957 9.3449L92.2378 7.70309ZM86.3868 5.988C84.4915 5.988 82.8322 6.50162 81.4758 7.58172L82.7217 9.14628C83.6693 8.39171 84.8687 7.988 86.3868 7.988V5.988ZM81.4777 7.58025C80.0391 8.72024 79.4028 10.4409 79.4028 12.524H81.4028C81.4028 10.8524 81.8971 9.79976 82.7198 9.14775L81.4777 7.58025ZM79.4028 12.524C79.4028 14.4235 80.0732 15.9921 81.4963 17.0662L82.7012 15.4698C81.863 14.8372 81.4028 13.9098 81.4028 12.524H79.4028ZM81.5061 17.0734C82.8342 18.0508 84.4265 18.516 86.2268 18.516V16.516C84.7844 16.516 83.6246 16.1492 82.6914 15.4626L81.5061 17.0734ZM86.2268 18.516C88.8745 18.516 91.0336 17.9648 92.4928 16.6619L91.1607 15.1701C90.2306 16.0006 88.6564 16.516 86.2268 16.516V18.516ZM90.8268 15.916V22.668H92.8268V15.916H90.8268ZM91.4152 21.7566C89.5727 22.5887 87.5281 23.012 85.2668 23.012V25.012C87.784 25.012 90.1128 24.5393 92.2383 23.5794L91.4152 21.7566ZM85.2668 23.012C83.716 23.012 82.2694 22.8007 80.9218 22.3845L80.3317 24.2955C81.8854 24.7753 83.5322 25.012 85.2668 25.012V23.012ZM80.9218 22.3845C79.5745 21.9685 78.3523 21.3565 77.2495 20.5491L76.068 22.1629C77.3546 23.1048 78.7776 23.8155 80.3317 24.2955L80.9218 22.3845ZM77.2657 20.5612C76.2371 19.7758 75.3944 18.7058 74.7496 17.3185L72.9359 18.1615C73.6991 19.8035 74.7337 21.1442 76.0518 22.1508L77.2657 20.5612ZM74.7544 17.3291C74.1396 15.9649 73.8188 14.3704 73.8188 12.524H71.8188C71.8188 14.603 72.1806 16.4858 72.9311 18.1509L74.7544 17.3291ZM96.1273 23.5H95.1273V24.5H96.1273V23.5ZM96.1273 1.1V0.0999985H95.1273V1.1H96.1273ZM103.519 1.1H104.519V0.0999985H103.519V1.1ZM103.519 7.5H102.519V8.5H103.519V7.5ZM103.519 13.58V12.58H102.519V13.58H103.519ZM103.519 17.42H102.519V18.42H103.519V17.42ZM107.583 16.94L107.02 16.1138L107.011 16.1199L107.002 16.1263L107.583 16.94ZM107.583 14.06L107.002 14.8737L107.011 14.8801L107.02 14.8862L107.583 14.06ZM124.351 23.5V24.5H125.351V23.5H124.351ZM116.959 23.5H115.959V24.5H116.959V23.5ZM116.959 1.1V0.0999985H115.959V1.1H116.959ZM124.351 1.1H125.351V0.0999985H124.351V1.1ZM105.919 22.5H96.1273V24.5H105.919V22.5ZM97.1273 23.5V1.1H95.1273V23.5H97.1273ZM96.1273 2.1H103.519V0.0999985H96.1273V2.1ZM102.519 1.1V7.5H104.519V1.1H102.519ZM103.519 8.5H105.919V6.5H103.519V8.5ZM105.919 8.5C109.028 8.5 111.173 9.14716 112.53 10.2703C113.85 11.3635 114.583 13.0425 114.583 15.5H116.583C116.583 12.6242 115.706 10.3032 113.805 8.72969C111.94 7.18617 109.254 6.5 105.919 6.5V8.5ZM114.583 15.5C114.583 17.9575 113.85 19.6365 112.53 20.7297C111.173 21.8528 109.028 22.5 105.919 22.5V24.5C109.254 24.5 111.94 23.8138 113.805 22.2703C115.706 20.6968 116.583 18.3758 116.583 15.5H114.583ZM102.519 13.58V17.42H104.519V13.58H102.519ZM103.519 18.42H105.855V16.42H103.519V18.42ZM105.855 18.42C106.709 18.42 107.505 18.2248 108.164 17.7537L107.002 16.1263C106.766 16.2952 106.409 16.42 105.855 16.42V18.42ZM108.147 17.7662C108.927 17.234 109.287 16.4218 109.287 15.5H107.287C107.287 15.8582 107.178 16.006 107.02 16.1138L108.147 17.7662ZM109.287 15.5C109.287 14.5782 108.927 13.766 108.147 13.2338L107.02 14.8862C107.178 14.994 107.287 15.1418 107.287 15.5H109.287ZM108.164 13.2463C107.505 12.7752 106.709 12.58 105.855 12.58V14.58C106.409 14.58 106.766 14.7048 107.002 14.8737L108.164 13.2463ZM105.855 12.58H103.519V14.58H105.855V12.58ZM124.351 22.5H116.959V24.5H124.351V22.5ZM117.959 23.5V1.1H115.959V23.5H117.959ZM116.959 2.1H124.351V0.0999985H116.959V2.1ZM123.351 1.1V23.5H125.351V1.1H123.351Z" fill="white"/>
</svg>
